# xmcd CD database file
#
# Track frame offsets:
#	150
#	11145
#	23732
#	44957
#	65230
#	79862
#	94537
#	117870
#	132317
#	144805
#	164365
#	178722
#	198472
#	218307
#	234180
#	248087
#	261982
#
# Disc length: 3670 seconds
#
# Revision: 0
# Processed by: cddbd v1.5PL3 Copyright (c) Steve Scherf et al.
# Submitted via: CDex 1.50beta8
#
DISCID=ea0e5411
DTITLE=Louis Armstrong - SATCHMO vol.2
DYEAR=1999
DGENRE=Jazz
TTITLE0=HELLO,DOLLY
TTITLE1=CABARET
TTITLE2=JEEPERS,CREEPERS
TTITLE3=A KISS TO BULD A DREAM ON
TTITLE4=BECAUSE OF YOU
TTITLE5=I'M IN THE MOOD FOR LOVE
TTITLE6=THAT7S FOR ME
TTITLE7=INDIAN LOVE CALL
TTITLE8=RAMONA
TTITLE9=PENNIES FROM HEAVEN
TTITLE10=I'LL WALK ALONE
TTITLE11=I CAN'T GIVE YOU ANYTHING BUT LOVE
TTITLE12=WHEN THE SAINTS GO MARCHING IN
TTITLE13=MEMORIES OF YOU
TTITLE14=YOU RASCAL YOU
TTITLE15=I'LL STRING ALONG WITH YOU
TTITLE16=MOON RIVER
EXTD=YEAR: 199?
EXTT0=
EXTT1=
EXTT2=
EXTT3=
EXTT4=
EXTT5=
EXTT6=
EXTT7=
EXTT8=
EXTT9=
EXTT10=
EXTT11=
EXTT12=
EXTT13=
EXTT14=
EXTT15=
EXTT16=
PLAYORDER=
